<?xml version="1.0" standalone="no"?>
<svg xmlns="http://www.w3.org/2000/svg" viewBox="0 0 226.71092240117127 120.35092240117129" width="226.71092240117127" height="120.35092240117129"><rect fill="none" stroke="#000000" stroke-width="4" width="222.71092240117127" height="116.35092240117129" x="2" y="2"></rect><g fill="#000000" color="#000000" transform="translate(118.36 12) scale(0.1881854)"><svg width="512.0" height="512.0" x="0.0" y="0.0" viewBox="0 0 512 512"><path d="M463.5,224h-16c-8.813,0-16,7.156-16,16h-17.375c-3.313-39.094-17.625-75.031-40.813-103.938  C368.125,101.063,361.5,66.219,351.5,32l-32-32h-192l-32,32c-9.938,34.219-16.563,69.031-21.75,104.031  C47.375,168.906,31.5,210.563,31.5,256s15.875,87.094,42.25,119.969c5.188,35,11.813,69.813,21.75,104.031l32,32h192l32-32  c10-34.219,16.625-69.063,21.813-104.031c23.188-28.938,37.5-64.875,40.813-103.969H431.5c0,8.844,7.188,16,16,16h16  c8.875,0,16-7.156,16-16v-32C479.5,231.156,472.375,224,463.5,224z M223.5,416c-88.188,0-160-71.781-160-160s71.813-160,160-160  c88.25,0,160,71.781,160,160S311.75,416,223.5,416z M237.063,248H319.5v16h-82.438c-2.125,3.563-5.438,6.125-9.563,7.188V288h-8  v-16.813c-4.063-1.063-7.438-3.625-9.531-7.188H191.5v-16h18.469c2.094-3.563,5.469-6.125,9.531-7.188V160h8v80.813  C231.625,241.875,234.938,244.438,237.063,248z M191.5,320h64v32h-64V320z M207.5,128c0-8.844,7.188-16,16-16s16,7.156,16,16  s-7.188,16-16,16S207.5,136.844,207.5,128z M239.5,384c0,8.844-7.188,16-16,16s-16-7.156-16-16s7.188-16,16-16  S239.5,375.156,239.5,384z M111.5,256c0,8.844-7.125,16-16,16c-8.813,0-16-7.156-16-16c0-8.813,7.188-16,16-16  C104.375,240,111.5,247.188,111.5,256z M335.5,256c0-8.813,7.188-16,16-16c8.875,0,16,7.188,16,16c0,8.844-7.125,16-16,16  C342.688,272,335.5,264.844,335.5,256z"></path></svg></g><path fill="#000000" fill-rule="nonzero" d="M10 32.68L5.48 32.68L5.48 3.64L0 3.64L0 0.28L15.32 0.28L15.32 3.64L10 3.64L10 32.68ZM20.84 32.68L16.60 32.68L23.48 0.28L27.84 0.28L34.76 32.68L30.48 32.68L29 24.52L22.40 24.52L20.84 32.68ZM25.68 6.68L23 21.28L28.40 21.28L25.68 6.68ZM45.60 33.08L45.60 33.08Q42.56 33.08 40.74 31.78Q38.92 30.48 38.10 28Q37.28 25.52 37.28 22.04L37.28 22.04L37.28 11.20Q37.28 7.64 38.02 5.14Q38.76 2.64 40.66 1.32Q42.56 0 45.96 0L45.96 0Q49 0 50.86 1.02Q52.72 2.04 53.56 4.14Q54.40 6.24 54.40 9.44L54.40 9.44L54.40 10.64L50.16 10.64L50.16 9.64Q50.16 7.52 49.88 6.18Q49.60 4.84 48.74 4.18Q47.88 3.52 46.04 3.52L46.04 3.52Q44.04 3.52 43.14 4.44Q42.24 5.36 42.02 6.94Q41.80 8.52 41.80 10.52L41.80 10.52L41.80 22.52Q41.80 24.84 42.14 26.40Q42.48 27.96 43.44 28.72Q44.40 29.48 46.16 29.48L46.16 29.48Q47.92 29.48 48.88 28.64Q49.84 27.80 50.20 26.16Q50.56 24.52 50.56 22.08L50.56 22.08L50.56 19.84L46.44 19.84L46.44 16.64L54.64 16.64L54.64 32.68L51.80 32.68L51.36 28.96Q50.72 30.76 49.36 31.92Q48 33.08 45.60 33.08Z" transform="translate(12 12) scale(1.673)"></path><path fill="#000000" fill-rule="nonzero" d="M8.60 33.04L8.60 33.04Q5.80 33.04 3.94 31.84Q2.08 30.64 1.12 28.52Q0.16 26.40 0 23.60L0 23.60L4 22.52Q4.12 24.24 4.54 25.84Q4.96 27.44 5.92 28.46Q6.88 29.48 8.60 29.48L8.60 29.48Q10.36 29.48 11.26 28.50Q12.16 27.52 12.16 25.68L12.16 25.68Q12.16 23.48 11.16 22.14Q10.16 20.80 8.64 19.44L8.64 19.44L3.20 14.64Q1.60 13.24 0.84 11.58Q0.08 9.92 0.08 7.48L0.08 7.48Q0.08 3.92 2.12 1.96Q4.16 0 7.68 0L7.68 0Q9.60 0 11.06 0.50Q12.52 1 13.50 2.04Q14.48 3.08 15.06 4.66Q15.64 6.24 15.84 8.36L15.84 8.36L12 9.40Q11.88 7.80 11.52 6.46Q11.16 5.12 10.26 4.30Q9.36 3.48 7.68 3.48L7.68 3.48Q6 3.48 5.06 4.38Q4.12 5.28 4.12 7.04L4.12 7.04Q4.12 8.52 4.62 9.48Q5.12 10.44 6.24 11.44L6.24 11.44L11.72 16.24Q13.56 17.84 14.96 20.06Q16.36 22.28 16.36 25.32L16.36 25.32Q16.36 27.72 15.36 29.46Q14.36 31.20 12.62 32.12Q10.88 33.04 8.60 33.04ZM27.96 32.68L23.44 32.68L23.44 3.64L17.96 3.64L17.96 0.28L33.28 0.28L33.28 3.64L27.96 3.64L27.96 32.68ZM44.68 33.04L44.68 33.04Q41.40 33.04 39.44 31.76Q37.48 30.48 36.64 28.10Q35.80 25.72 35.80 22.52L35.80 22.52L35.80 10.24Q35.80 7.04 36.66 4.74Q37.52 2.44 39.46 1.22Q41.40 0 44.68 0L44.68 0Q47.96 0 49.88 1.24Q51.80 2.48 52.66 4.76Q53.52 7.04 53.52 10.24L53.52 10.24L53.52 22.56Q53.52 25.72 52.66 28.08Q51.80 30.44 49.88 31.74Q47.96 33.04 44.68 33.04ZM44.68 29.48L44.68 29.48Q46.48 29.48 47.40 28.74Q48.32 28 48.64 26.66Q48.96 25.32 48.96 23.52L48.96 23.52L48.96 9.32Q48.96 7.52 48.64 6.22Q48.32 4.92 47.40 4.22Q46.48 3.52 44.68 3.52L44.68 3.52Q42.88 3.52 41.94 4.22Q41 4.92 40.68 6.22Q40.36 7.52 40.36 9.32L40.36 9.32L40.36 23.52Q40.36 25.32 40.68 26.66Q41 28 41.94 28.74Q42.88 29.48 44.68 29.48ZM62.48 32.68L57.96 32.68L57.96 0.28L64.48 0.28Q67.72 0.28 69.84 1.14Q71.96 2 72.98 3.90Q74 5.80 74 8.88L74 8.88Q74 10.76 73.60 12.30Q73.20 13.84 72.32 14.90Q71.44 15.96 70 16.44L70 16.44L74.60 32.68L70.24 32.68L66 17.48L62.48 17.48L62.48 32.68ZM62.48 3.52L62.48 14.24L64.20 14.24Q66.12 14.24 67.32 13.76Q68.52 13.28 69.08 12.12Q69.64 10.96 69.64 8.88L69.64 8.88Q69.64 6.04 68.60 4.78Q67.56 3.52 64.48 3.52L64.48 3.52L62.48 3.52ZM91.36 32.68L78.72 32.68L78.72 0.28L91.28 0.28L91.28 3.64L83.24 3.64L83.24 14.36L89.76 14.36L89.76 17.56L83.24 17.56L83.24 29.44L91.36 29.44L91.36 32.68Z" transform="translate(12 75.311) scale(1)"></path></svg>